<svg viewBox="0 0 400 368" fill="none" xmlns="http://www.w3.org/2000/svg">
<g clip-path="url(#clip0_3_1168)">
<path d="M38.7182 227.996L26.7909 228.251L20.7364 228.351C18.7091 228.351 16.6727 228.351 14.6455 228.396H14.2455V227.987L14.1909 217.82V217.365H14.6455L26.6818 217.42C30.7 217.42 34.7091 217.52 38.7182 217.565H38.9727V217.811C38.9727 219.537 38.8909 221.245 38.8546 222.944L38.7182 227.996ZM38.7182 227.996L38.5909 222.854C38.5909 221.163 38.4909 219.492 38.4727 217.829L38.7182 218.074C34.7091 218.119 30.7 218.219 26.6818 218.219L14.6455 218.283L15.1 217.829V227.996L14.6909 227.588C16.6727 227.588 18.6546 227.588 20.6455 227.642L26.6273 227.742L38.7182 227.996Z" fill="#EBEBEB"/>
<path d="M25.2909 240.79L13.3637 241.045L7.30913 241.145C5.28185 241.145 3.24549 241.144 1.21822 241.19H0.818217V240.79L0.763672 230.622V230.159H1.21822L13.2546 230.214C17.2637 230.214 21.2819 230.313 25.2909 230.359H25.5455V230.604C25.5455 232.331 25.4728 234.039 25.4273 235.738L25.2909 240.79ZM25.2909 240.79L25.1637 235.647C25.1637 233.957 25.0637 232.285 25.0455 230.622L25.2909 230.868C21.2819 230.913 17.2637 231.013 13.2546 231.013L1.21822 231.077L1.67276 230.622L1.62731 240.79L1.21822 240.381C3.20004 240.381 5.18185 240.381 7.17276 240.436L13.1546 240.536L25.2909 240.79Z" fill="#EBEBEB"/>
<path d="M239.246 93.3539L227.318 93.6083L221.264 93.7082C219.236 93.7537 217.2 93.7082 215.173 93.7628H214.773V93.3539L214.718 83.1862V82.7318H215.173L227.209 82.7955C231.227 82.7955 235.236 82.8954 239.246 82.9408H239.5V83.1862C239.5 84.9126 239.418 86.6299 239.373 88.3291L239.246 93.3539ZM239.246 93.3539L239.118 88.22C239.118 86.53 239.018 84.849 239 83.1862L239.246 83.4406C235.236 83.4406 231.227 83.5769 227.209 83.586L215.173 83.6405L215.627 83.1862L215.582 93.3539L215.173 92.9541C217.155 92.9541 219.136 92.9541 221.127 92.9541L227.109 93.054L239.246 93.3539Z" fill="#EBEBEB"/>
<path d="M225.818 106.175L213.891 106.429L207.836 106.529C205.809 106.529 203.773 106.529 201.745 106.584H201.345V106.175L201.291 96.0071V95.5528H201.745L213.782 95.6164C217.791 95.6164 221.809 95.7163 225.818 95.7618H226.073V96.0071C226.073 97.7335 226 99.4509 225.955 101.15L225.818 106.175ZM225.818 106.175L225.691 101.041C225.645 99.3509 225.591 97.6699 225.573 96.0071L225.818 96.2615C221.809 96.307 217.791 96.3978 213.782 96.4069L201.745 96.4614L202.2 96.0071V106.175L201.791 105.775C203.773 105.775 205.755 105.775 207.745 105.82L213.727 105.92L225.818 106.175Z" fill="#EBEBEB"/>
<path d="M212.445 93.3539L200.509 93.6083L194.455 93.7082C192.436 93.7537 190.4 93.7082 188.373 93.7628H187.964V93.3539V83.1862V82.7318H188.418L200.455 82.7955C204.464 82.7955 208.473 82.8954 212.491 82.9408H212.727V83.1862C212.727 84.9126 212.645 86.6299 212.609 88.3291L212.445 93.3539ZM212.445 93.3539L212.318 88.22C212.273 86.53 212.209 84.849 212.191 83.1862L212.445 83.4406C208.427 83.4406 204.418 83.5769 200.409 83.586L188.373 83.6405L188.827 83.1862L188.773 93.3539L188.373 92.9541C190.355 92.9541 192.327 92.9541 194.318 92.9541L200.3 93.054L212.445 93.3539Z" fill="#EBEBEB"/>
<path d="M398.782 240.79L386.846 241.045L380.791 241.145C378.773 241.145 376.736 241.144 374.709 241.19H374.3V240.79L374.255 230.622V230.159H374.709L386.746 230.214C390.755 230.214 394.773 230.313 398.782 230.359H399.027V230.604C399.027 232.331 398.955 234.039 398.909 235.738L398.782 240.79ZM398.782 240.79L398.655 235.647C398.655 233.957 398.546 232.285 398.536 230.622L398.782 230.868C394.773 230.913 390.755 231.013 386.746 231.013L374.709 231.077L375.164 230.622L375.109 240.79L374.709 240.381C376.691 240.381 378.673 240.381 380.655 240.436L386.636 240.536L398.782 240.79Z" fill="#EBEBEB"/>
<path d="M385.355 10.831L373.418 11.0763L367.364 11.1854C365.346 11.1854 363.309 11.1854 361.282 11.1854H360.909V10.7856V0.617874V0.154465H361.373L373.409 0.208984C377.418 0.208984 381.427 0.308935 385.446 0.354367H385.691V0.599701C385.691 2.31703 385.609 4.03437 385.573 5.73353L385.355 10.831ZM385.355 10.831L385.227 5.68809C385.182 3.99802 385.118 2.32612 385.1 0.663305L385.355 0.908639C381.336 0.908639 377.327 1.05402 373.318 1.05402L361.282 1.11763L361.736 0.663305L361.682 10.831L361.282 10.4221C363.264 10.4221 365.236 10.4221 367.227 10.4676L373.209 10.5766L385.355 10.831Z" fill="#EBEBEB"/>
<path d="M398.782 23.6247L386.846 23.87L380.791 23.9791C378.773 23.9791 376.736 23.9791 374.709 23.9791H374.3V23.6247L374.255 13.457V12.9936H374.709L386.746 13.0481C390.755 13.0481 394.773 13.148 398.782 13.1935H399.027V13.4388C399.027 15.1561 398.955 16.8735 398.909 18.5726L398.782 23.6247ZM398.782 23.6247L398.655 18.4818C398.655 16.7917 398.546 15.1198 398.536 13.457L398.782 13.7023C394.773 13.7023 390.755 13.8477 386.746 13.8477L374.709 13.9022L375.164 13.457L375.109 23.6247L374.709 23.2158C376.691 23.2158 378.673 23.2158 380.655 23.2612L386.636 23.3703L398.782 23.6247Z" fill="#EBEBEB"/>
<path d="M38.7182 10.831L26.7909 11.0763L20.7364 11.1854C18.7091 11.1854 16.6727 11.1854 14.6455 11.1854H14.2455V10.7856L14.1909 0.617874V0.154465H14.6455L26.6818 0.208984C30.7 0.208984 34.7091 0.308935 38.7182 0.354367H38.9727V0.599701C38.9727 2.31703 38.8909 4.03437 38.8546 5.73353L38.7182 10.831ZM38.7182 10.831L38.5909 5.68809C38.5909 3.99802 38.4909 2.32612 38.4727 0.663305L38.7182 0.908639C34.7091 0.908639 30.7 1.05402 26.6818 1.05402L14.6455 1.11763L15.1 0.663305V10.831L14.6909 10.4221C16.6727 10.4221 18.6546 10.4221 20.6455 10.4676L26.6273 10.5766L38.7182 10.831Z" fill="#EBEBEB"/>
<path d="M260.682 234.839H385.673L389.691 155.569H256.664L260.682 234.839Z" fill="#EBEBEB"/>
<path d="M376.509 191.86H266.436L264.918 164.337H378.273L376.509 191.86ZM267.355 190.878H375.591L377.273 165.309H265.945L267.355 190.878Z" fill="#DBDBDB"/>
<path d="M375.018 223.526H269.564L268.327 198.684H376.509L375.018 223.526ZM270.527 222.554H374.1L375.527 199.656H269.391L270.527 222.554Z" fill="#DBDBDB"/>
<path d="M334.127 181.083H310.8L309.936 174.441H334.991L334.127 181.083ZM311.655 180.111H333.273L333.882 175.422H311.045L311.655 180.111Z" fill="#DBDBDB"/>
<path d="M334.127 214.44H310.8L309.936 207.806H334.991L334.127 214.44ZM311.655 213.467H333.273L333.882 208.779H311.045L311.655 213.467Z" fill="#DBDBDB"/>
<path d="M278.018 234.839L276.8 243.471L274.364 260.826H269.591V234.839H278.018Z" fill="#EBEBEB"/>
<path d="M278.018 234.839L276.8 243.471H269.591V234.839H278.018Z" fill="#DBDBDB"/>
<path d="M368.336 234.839L369.546 243.471L371.991 260.826H376.764V234.839H368.336Z" fill="#EBEBEB"/>
<path d="M368.336 234.839L369.546 243.471H376.764V234.839H368.336Z" fill="#DBDBDB"/>
<path d="M352.873 18.818H304.709V77.2164H352.873V18.818Z" fill="#EBEBEB"/>
<path d="M347.364 24.1426H310.209V71.8736H347.364V24.1426Z" fill="white"/>
<path d="M311.655 24.1426H310.209V71.8736H311.655V24.1426Z" fill="#DBDBDB"/>
<path d="M354.318 18.818H352.873V77.2164H354.318V18.818Z" fill="#DBDBDB"/>
<path d="M331.427 30.7303H322.664V56.8174H331.427V30.7303Z" fill="#DBDBDB"/>
<path d="M342.2 48.4942H318.836V61.2788H342.2V48.4942Z" stroke="#EBEBEB" stroke-miterlimit="10"/>
<path d="M289.545 61.2788H241.382V119.677H289.545V61.2788Z" fill="#EBEBEB"/>
<path d="M284.045 66.6035H246.891V114.334H284.045V66.6035Z" fill="white"/>
<path d="M248.336 66.6035H246.891V114.334H248.336V66.6035Z" fill="#DBDBDB"/>
<path d="M290.991 61.2788H289.546V119.677H290.991V61.2788Z" fill="#DBDBDB"/>
<path d="M269.373 78.9428H261.864V97.9153H269.373V78.9428Z" fill="#EBEBEB"/>
<path d="M277.273 90.4735H257.109V103.549H277.273V90.4735Z" stroke="#DBDBDB" stroke-miterlimit="10"/>
<path d="M200 367.8C285.509 367.8 354.827 360.563 354.827 351.635C354.827 342.708 285.509 335.471 200 335.471C114.491 335.471 45.1727 342.708 45.1727 351.635C45.1727 360.563 114.491 367.8 200 367.8Z" fill="#EBEBEB"/>
<path d="M346 320.215C346.058 319.638 345.945 319.058 345.677 318.544C345.409 318.031 344.997 317.607 344.491 317.325C344.977 317.029 345.355 316.585 345.571 316.059C345.786 315.532 345.829 314.951 345.691 314.399C345.146 312.582 342.9 312.782 342.9 312.782C343.336 312.414 343.627 311.903 343.721 311.34C343.814 310.777 343.704 310.199 343.409 309.711C342.627 308.111 340.227 308.956 340.227 308.956C340.682 308.474 340.959 307.853 341.015 307.193C341.072 306.533 340.903 305.874 340.536 305.322C340.018 304.413 338.364 304.55 338.255 304.413C334.546 299.534 326.655 289.675 307.273 294.464C292.509 298.098 287.882 312.337 288.5 324.73C288.5 324.921 287.491 325.021 287.491 326.357C287.461 326.683 287.527 327.01 287.68 327.299C287.834 327.588 288.068 327.826 288.355 327.983C288.048 328.254 287.842 328.62 287.769 329.023C287.697 329.425 287.762 329.84 287.955 330.2C288.14 330.591 288.451 330.908 288.839 331.099C289.227 331.291 289.668 331.345 290.091 331.255C289.827 331.745 288.573 332.536 289.273 334.335C289.48 334.84 289.853 335.261 290.33 335.526C290.807 335.792 291.361 335.888 291.9 335.798C291.622 336.183 291.466 336.642 291.452 337.116C291.437 337.591 291.565 338.059 291.818 338.46C292.055 338.851 293.709 338.96 293.982 339.132C278.055 347.31 253.209 347.128 248.173 349.128C231.7 355.633 251.082 371.526 265.309 366.583C266.218 366.264 264.746 364.565 263.791 364.656C247.773 366.119 240.282 354.479 249.909 351.781C256.155 350.036 280.6 350.336 295.264 342.004C296.464 341.322 297.227 343.012 297.546 343.33C305.118 350.945 321.036 353.162 331.109 347.546C343.982 340.377 345.136 328.901 344.809 322.604C345.207 322.352 345.528 321.996 345.738 321.575C345.948 321.154 346.038 320.684 346 320.215Z" fill="#677489"/>
<path d="M337.818 313.136C334.091 320.405 326.218 324.949 318.727 327.565C310.805 330.372 302.297 331.11 294.009 329.71C293.391 329.61 293.1 330.564 293.745 330.664C302.485 332.152 311.462 331.312 319.773 328.229C327.182 325.448 334.9 320.896 338.618 313.636C338.955 313.073 338.1 312.573 337.818 313.136Z" fill="#364153"/>
<path d="M340.355 321.732C334.986 327.692 328.287 332.303 320.802 335.19C313.316 338.078 305.255 339.161 297.273 338.351C296.636 338.287 296.646 339.26 297.273 339.341C305.385 340.149 313.574 339.039 321.178 336.1C328.782 333.161 335.587 328.475 341.046 322.423C341.473 321.959 340.782 321.259 340.355 321.732Z" fill="#364153"/>
<path d="M338.436 304.341C333.827 296.435 324.645 293.828 315.955 293.728C315.868 293.725 315.782 293.747 315.707 293.792C315.633 293.837 315.574 293.903 315.536 293.982C315.092 293.71 314.62 293.488 314.127 293.319C313.527 293.119 313.218 294.064 313.864 294.273C315.18 294.697 316.298 295.583 317.011 296.767C317.725 297.952 317.986 299.354 317.745 300.715C317.745 300.715 317.745 300.77 317.745 300.797C317.034 300.656 316.314 300.555 315.591 300.497C315.6 300.458 315.6 300.418 315.591 300.379C315.535 298.934 315.054 297.537 314.206 296.365C313.358 295.193 312.183 294.297 310.827 293.791C310.768 293.763 310.703 293.749 310.637 293.752C310.572 293.755 310.508 293.774 310.451 293.807C310.395 293.84 310.347 293.887 310.313 293.942C310.279 293.998 310.259 294.062 310.255 294.127H310.136C310.08 294.066 310.008 294.019 309.929 293.992C309.849 293.965 309.764 293.958 309.682 293.973C299.882 295.627 294.664 303.25 291.927 312.1L291.836 311.937C291.77 311.824 291.661 311.741 291.534 311.708C291.407 311.675 291.272 311.693 291.159 311.76C291.046 311.826 290.963 311.934 290.93 312.061C290.897 312.188 290.916 312.323 290.982 312.437C291.191 312.809 291.418 313.182 291.645 313.545V313.6C294.016 317.518 296.951 321.066 300.355 324.131C300.41 324.226 300.492 324.302 300.591 324.349C301.309 324.985 302.045 325.612 302.809 326.212C301.9 326.212 300.991 326.212 300.082 326.212C300.079 326.133 300.057 326.056 300.017 325.988C299.977 325.92 299.922 325.862 299.855 325.821C295.663 322.99 292.332 319.06 290.227 314.463C289.964 313.89 289.109 314.39 289.373 314.963C291.428 319.449 294.618 323.323 298.627 326.202C296.07 325.993 293.539 325.53 291.073 324.821C291.01 324.804 290.945 324.799 290.88 324.807C290.816 324.815 290.753 324.836 290.697 324.868C290.64 324.9 290.59 324.943 290.55 324.994C290.51 325.045 290.481 325.104 290.464 325.167C290.446 325.229 290.442 325.295 290.45 325.359C290.458 325.424 290.478 325.486 290.51 325.543C290.542 325.599 290.585 325.649 290.637 325.689C290.688 325.729 290.746 325.758 290.809 325.775C308.755 330.918 327.018 322.813 337.691 308.021C338.064 307.512 337.2 307.012 336.836 307.53L336.7 307.703C335.17 304.039 332.537 300.941 329.167 298.839C325.797 296.737 321.856 295.735 317.891 295.972C317.811 295.972 317.732 295.994 317.664 296.036C317.349 295.566 316.977 295.139 316.555 294.763C324.9 294.972 333.618 297.562 337.864 305.358C337.896 305.417 337.939 305.469 337.991 305.513C337.945 305.803 337.891 306.085 337.836 306.376C337.718 306.994 338.673 307.285 338.791 306.639L339.091 304.968C339.112 304.878 339.109 304.786 339.083 304.698C339.057 304.61 339.008 304.531 338.942 304.468C338.876 304.405 338.795 304.36 338.706 304.337C338.617 304.315 338.525 304.316 338.436 304.341ZM292.609 313.309C295.009 304.967 299.482 297.671 308.064 295.39C300.964 299.879 294.427 307.53 294.427 316.107C293.791 315.199 293.191 314.263 292.609 313.309ZM295.455 317.479C294.782 308.811 301.145 301.051 308.182 296.463C304.781 299.343 302.054 302.934 300.194 306.984C298.334 311.033 297.387 315.441 297.418 319.896C296.773 319.115 296.118 318.306 295.455 317.479ZM300.218 322.768C299.591 322.177 298.982 321.559 298.4 320.951C298.438 320.878 298.457 320.796 298.455 320.714C298.277 315.705 299.384 310.733 301.668 306.271C303.953 301.809 307.34 298.004 311.509 295.218L311.736 295.345C307.904 298.777 304.884 303.018 302.895 307.761C300.906 312.504 299.998 317.63 300.236 322.768H300.218ZM305.555 326.112C305.555 325.648 305.555 325.203 305.509 324.712C305.509 324.085 304.5 324.076 304.518 324.712L304.573 326.184H304.009C304.007 326.105 303.987 326.027 303.951 325.956C303.914 325.886 303.863 325.824 303.8 325.775C302.891 325.103 302.082 324.394 301.264 323.667C300.871 318.483 301.684 313.278 303.638 308.459C305.592 303.641 308.634 299.339 312.527 295.89C312.901 296.232 313.233 296.617 313.518 297.035C313.478 297.06 313.441 297.09 313.409 297.126C307.368 304.339 304.211 313.531 304.545 322.931C304.545 323.567 305.555 323.567 305.527 322.931C305.212 313.849 308.243 304.967 314.045 297.971C314.294 298.498 314.465 299.058 314.555 299.634C314.492 299.646 314.433 299.672 314.381 299.71C314.329 299.748 314.286 299.796 314.255 299.852C309.226 307.573 306.819 316.708 307.391 325.903C306.791 325.984 306.182 326.057 305.573 326.112H305.555ZM322.309 303.486C322.939 303.833 323.546 304.218 324.127 304.64C322.503 308.008 320.157 310.977 317.255 313.336C317.186 313.345 317.12 313.373 317.066 313.416C317.011 313.459 316.97 313.516 316.946 313.581C314.482 315.513 311.68 316.968 308.682 317.87C308.745 317.37 308.818 316.862 308.9 316.362C314.681 313.684 319.401 309.153 322.309 303.486ZM319.691 305.94C319.595 304.473 319.07 303.067 318.182 301.896C319.303 302.161 320.394 302.542 321.436 303.032C320.911 304.028 320.328 304.993 319.691 305.922V305.94ZM325.745 306.303C326.448 307.829 326.755 309.507 326.637 311.182C326.52 312.858 325.982 314.477 325.073 315.889C324.527 315.569 324.026 315.178 323.582 314.726C324.517 313.648 325.091 312.304 325.223 310.883C325.355 309.462 325.039 308.035 324.318 306.803C324.285 306.737 324.235 306.68 324.173 306.639C324.427 306.194 324.664 305.731 324.891 305.276C325.182 305.522 325.445 305.776 325.709 306.031C325.697 306.117 325.71 306.205 325.745 306.285V306.303ZM322.936 313.963C322.255 313.015 321.806 311.919 321.627 310.765C321.612 310.667 321.564 310.577 321.491 310.51C322.262 309.58 322.969 308.6 323.609 307.575C324.137 308.585 324.354 309.729 324.235 310.862C324.115 311.995 323.663 313.067 322.936 313.945V313.963ZM311.818 313.418C311.843 313.467 311.874 313.512 311.909 313.554C311.028 314.134 310.118 314.667 309.182 315.153C309.373 314.163 309.618 313.2 309.882 312.228C310.29 312.191 310.699 312.287 311.048 312.501C311.397 312.716 311.667 313.037 311.818 313.418ZM310.118 311.237C310.536 309.868 311.021 308.514 311.573 307.175C312.492 307.345 313.345 307.771 314.032 308.404C314.719 309.038 315.212 309.853 315.455 310.756C315.453 310.777 315.453 310.798 315.455 310.819C314.571 311.626 313.633 312.37 312.645 313.045C312.438 312.527 312.084 312.081 311.628 311.76C311.171 311.438 310.631 311.257 310.073 311.237H310.118ZM316.3 310.047C315.962 309.096 315.386 308.248 314.627 307.583C313.868 306.918 312.951 306.459 311.964 306.249C312.227 305.649 312.518 305.049 312.809 304.431C313.914 304.661 314.924 305.216 315.708 306.026C316.493 306.837 317.016 307.864 317.209 308.975C316.9 309.374 316.582 309.732 316.255 310.047H316.3ZM308.418 325.739C308.336 324.394 308.336 323.059 308.418 321.732C309.308 323.202 310.684 324.315 312.309 324.876C311.014 325.235 309.7 325.523 308.373 325.739H308.418ZM313.582 324.494C313.568 324.408 313.528 324.329 313.468 324.266C313.408 324.202 313.331 324.159 313.245 324.14C312.256 323.906 311.336 323.442 310.56 322.785C309.784 322.128 309.175 321.297 308.782 320.36C308.758 320.296 308.717 320.24 308.664 320.197C308.612 320.154 308.549 320.126 308.482 320.115C308.482 319.687 308.545 319.251 308.591 318.824C308.682 318.857 308.782 318.857 308.873 318.824C310.403 318.372 311.888 317.779 313.309 317.052C313.331 318.315 313.677 319.552 314.314 320.643C314.951 321.734 315.857 322.644 316.946 323.286C315.8 323.74 314.682 324.14 313.536 324.494H313.582ZM318.127 322.813C318.084 322.767 318.031 322.73 317.973 322.704C316.819 322.154 315.857 321.272 315.209 320.171C314.561 319.07 314.257 317.8 314.336 316.525C315.302 315.98 316.231 315.373 317.118 314.708C317.386 316.096 318.039 317.381 319.004 318.414C319.969 319.448 321.206 320.188 322.573 320.551C321.108 321.39 319.596 322.145 318.045 322.813H318.127ZM323.691 319.887C323.628 319.806 323.537 319.751 323.436 319.733C322.033 319.497 320.744 318.813 319.761 317.785C318.778 316.757 318.154 315.438 317.982 314.027C318.382 313.709 318.764 313.372 319.136 313.027C320.345 315.753 321.964 318.479 325.036 318.988C324.545 319.297 324.073 319.597 323.636 319.887H323.691ZM325.991 318.343C325.953 318.268 325.896 318.204 325.826 318.158C325.756 318.112 325.675 318.084 325.591 318.079C322.5 317.825 321.045 314.844 319.909 312.309C320.218 312 320.527 311.673 320.818 311.346C321.121 312.874 321.86 314.282 322.946 315.399C324.031 316.516 325.417 317.296 326.936 317.643L325.991 318.343ZM329.091 311.383C329.247 312.331 329.202 313.302 328.961 314.233C328.72 315.164 328.288 316.035 327.691 316.789C327.123 316.695 326.568 316.536 326.036 316.316C326.817 315.082 327.341 313.704 327.579 312.263C327.816 310.823 327.761 309.349 327.418 307.93C328.108 308.892 328.717 309.91 329.236 310.974C329.169 311.019 329.113 311.08 329.074 311.151C329.034 311.222 329.012 311.301 329.009 311.383H329.091ZM329.536 315.562C329.872 314.768 330.072 313.924 330.127 313.064C330.327 313.545 330.518 314.027 330.709 314.526C330.245 314.881 329.855 315.217 329.455 315.562H329.536ZM331.473 313.745C330 309.947 328.255 306.476 324.918 303.904C323.089 302.521 320.999 301.523 318.773 300.969C318.919 300.143 318.919 299.297 318.773 298.471C322.182 299.019 325.365 300.521 327.956 302.803C330.546 305.085 332.437 308.053 333.409 311.364C333.443 311.461 333.502 311.546 333.582 311.61C332.8 312.364 332.109 313.091 331.391 313.79L331.473 313.745ZM336.018 308.429C336.018 308.429 336.018 308.484 336.073 308.511C335.473 309.293 334.864 310.065 334.255 310.801C333.184 307.311 331.142 304.197 328.366 301.824C325.591 299.451 322.197 297.916 318.582 297.399C318.546 297.39 318.509 297.39 318.473 297.399C318.406 297.213 318.331 297.031 318.245 296.853C322.045 296.694 325.799 297.73 328.979 299.814C332.159 301.899 334.605 304.928 335.973 308.475L336.018 308.429ZM318.745 307.248C318.518 307.539 318.3 307.821 318.064 308.093C317.74 306.983 317.127 305.977 316.289 305.179C315.451 304.382 314.417 303.819 313.291 303.55C313.673 302.823 314.082 302.096 314.518 301.387C315.236 301.399 315.953 301.457 316.664 301.56C317.431 302.287 318.014 303.186 318.364 304.183C318.713 305.181 318.819 306.247 318.673 307.294L318.745 307.248Z" fill="#364153"/>
<path d="M340.282 327.302C340.259 327.255 340.228 327.212 340.191 327.175C340.427 326.72 339.809 326.157 339.418 326.593C334.676 331.93 328.719 336.049 322.05 338.603C315.382 341.157 308.196 342.071 301.1 341.268C300.464 341.195 300.473 342.176 301.1 342.249C301.446 342.249 301.8 342.322 302.155 342.349C302.299 344.652 303.344 346.806 305.064 348.346C305.536 348.773 306.236 348.083 305.764 347.655C304.243 346.319 303.306 344.44 303.155 342.422C304.018 342.476 304.891 342.513 305.755 342.513C306.321 345.268 307.614 347.822 309.5 349.909C309.918 350.381 310.618 349.682 310.191 349.209C308.49 347.315 307.312 345.01 306.773 342.522C307.327 342.522 307.891 342.522 308.446 342.467C308.926 345.475 310.405 348.234 312.646 350.3C313.109 350.736 313.809 350.036 313.346 349.6C311.278 347.703 309.902 345.17 309.436 342.404L310.346 342.331C311.205 345.455 312.826 348.318 315.064 350.663C315.5 351.127 316.2 350.427 315.764 349.963C313.68 347.782 312.163 345.124 311.346 342.222C311.991 342.149 312.636 342.067 313.273 341.967C313.248 342.057 313.248 342.151 313.273 342.24C314.773 345.693 317.316 348.59 320.546 350.527C321.091 350.854 321.582 350 321.046 349.673C318.009 347.821 315.621 345.076 314.209 341.813C314.8 341.713 315.391 341.595 315.973 341.459C315.98 341.565 316.025 341.665 316.1 341.74C317.779 343.556 319.823 344.997 322.098 345.97C324.372 346.942 326.827 347.424 329.3 347.383C329.43 347.383 329.555 347.331 329.647 347.239C329.739 347.147 329.791 347.022 329.791 346.892C329.791 346.762 329.739 346.637 329.647 346.545C329.555 346.453 329.43 346.402 329.3 346.402C326.998 346.44 324.714 346 322.591 345.108C320.469 344.217 318.556 342.893 316.973 341.222C317.882 341.013 318.709 340.768 319.564 340.504C322.847 343.371 326.95 345.133 331.291 345.538C331.305 345.638 331.347 345.731 331.412 345.806C331.478 345.882 331.564 345.937 331.66 345.965C331.756 345.993 331.858 345.992 331.954 345.963C332.05 345.934 332.135 345.878 332.2 345.802C333.389 344.043 334.158 342.034 334.448 339.931C334.738 337.828 334.541 335.687 333.873 333.672C333.848 333.59 333.801 333.516 333.737 333.46C333.672 333.404 333.594 333.367 333.509 333.353C334.082 332.917 334.646 332.445 335.2 332.009C336.353 333.892 336.919 336.076 336.825 338.281C336.731 340.487 335.982 342.615 334.673 344.393C334.309 344.92 335.164 345.411 335.527 344.893C336.943 342.937 337.741 340.602 337.817 338.189C337.893 335.776 337.245 333.396 335.955 331.354C336.564 330.827 337.155 330.282 337.773 329.728C338.642 331.257 339.194 332.945 339.397 334.692C339.6 336.439 339.45 338.208 338.955 339.896C338.953 340.003 338.987 340.108 339.051 340.194C339.115 340.281 339.206 340.344 339.309 340.374C339.412 340.403 339.522 340.399 339.622 340.36C339.723 340.321 339.807 340.251 339.864 340.159C340.408 338.304 340.564 336.357 340.323 334.439C340.083 332.521 339.45 330.673 338.464 329.01C338.809 328.665 339.146 328.311 339.482 327.956C340.825 330.62 341.395 333.608 341.127 336.579C341.127 337.215 342.036 337.206 342.118 336.579C342.395 333.375 341.759 330.159 340.282 327.302ZM325.809 343.203C323.952 342.453 322.219 341.423 320.673 340.15C322.714 339.457 324.703 338.622 326.627 337.651C326.911 339.542 326.626 341.474 325.809 343.203ZM326.718 343.548C327.622 341.587 327.916 339.4 327.564 337.27V337.188C328.318 336.788 329.064 336.352 329.791 335.907C330.304 338.684 330.024 341.55 328.982 344.175C328.22 344.006 327.467 343.797 326.727 343.548H326.718ZM331.7 344.766C331.659 344.706 331.605 344.656 331.542 344.62C331.479 344.584 331.409 344.562 331.336 344.557C330.864 344.512 330.427 344.439 329.918 344.366C330.997 341.578 331.268 338.542 330.7 335.607C330.686 335.527 330.651 335.452 330.6 335.389C331.382 334.889 332.164 334.353 332.918 333.799C332.909 333.844 332.909 333.89 332.918 333.935C333.525 335.718 333.73 337.613 333.521 339.485C333.313 341.357 332.694 343.16 331.709 344.766H331.7Z" fill="#364153"/>
<path d="M319.173 332.699C310.736 336.625 301.373 335.898 292.364 335.089C291.727 335.034 291.736 335.998 292.364 336.07C301.591 336.906 311.055 337.57 319.636 333.544C320.245 333.281 319.745 332.427 319.173 332.699Z" fill="#364153"/>
<path d="M292.173 327.547L288.427 327.129C287.791 327.066 287.8 328.038 288.427 328.12L292.173 328.538C292.8 328.61 292.8 327.62 292.173 327.547Z" fill="#364153"/>
<path d="M342.809 312.773C339.389 320.489 333.081 326.559 325.236 329.683C324.655 329.919 324.909 330.873 325.5 330.637C333.6 327.45 340.128 321.216 343.682 313.272C343.918 312.691 343.064 312.191 342.809 312.773Z" fill="#364153"/>
<path d="M339.682 308.193C333.797 315.86 326.121 321.969 317.327 325.984C316.755 326.248 317.255 327.093 317.827 326.829C326.78 322.728 334.586 316.487 340.555 308.657C340.909 308.184 340.064 307.693 339.682 308.193Z" fill="#364153"/>
<path d="M315.673 326.593C315.553 326.609 315.443 326.669 315.364 326.76C315.284 326.851 315.24 326.967 315.24 327.088C315.24 327.209 315.284 327.326 315.364 327.417C315.443 327.508 315.553 327.567 315.673 327.584C315.793 327.567 315.903 327.508 315.982 327.417C316.062 327.326 316.106 327.209 316.106 327.088C316.106 326.967 316.062 326.851 315.982 326.76C315.903 326.669 315.793 326.609 315.673 326.593Z" fill="#364153"/>
<path d="M316.609 330.482C308.109 333.283 298.99 333.633 290.3 331.491C290.173 331.456 290.038 331.473 289.924 331.537C289.81 331.602 289.726 331.71 289.691 331.836C289.656 331.963 289.673 332.098 289.738 332.212C289.802 332.326 289.91 332.41 290.036 332.445C298.899 334.632 308.199 334.283 316.873 331.436C317.473 331.236 317.218 330.291 316.609 330.482Z" fill="#364153"/>
<path d="M321.591 331.736C321.461 331.736 321.336 331.788 321.244 331.88C321.152 331.972 321.1 332.097 321.1 332.227C321.1 332.357 321.152 332.482 321.244 332.574C321.336 332.666 321.461 332.717 321.591 332.717C321.721 332.717 321.846 332.666 321.938 332.574C322.03 332.482 322.082 332.357 322.082 332.227C322.082 332.097 322.03 331.972 321.938 331.88C321.846 331.788 321.721 331.736 321.591 331.736Z" fill="#364153"/>
<path d="M343.955 323.204C344.13 322.882 344.282 322.548 344.409 322.204C344.627 321.605 343.673 321.35 343.455 321.941C342.958 323.309 342.05 324.49 340.855 325.321C340.336 325.685 340.855 326.539 341.355 326.175L341.655 325.948C342.585 327.957 342.956 330.179 342.727 332.381C342.664 333.008 343.636 332.999 343.718 332.381C343.968 329.942 343.534 327.482 342.464 325.276C342.798 324.959 343.103 324.613 343.373 324.24C343.636 325.034 343.801 325.858 343.864 326.693C343.918 327.32 344.9 327.329 344.855 326.693C344.744 325.489 344.44 324.311 343.955 323.204Z" fill="#364153"/>
<path d="M299.3 341.05L296.764 340.677C296.682 340.664 296.599 340.672 296.522 340.699C296.444 340.726 296.374 340.771 296.318 340.832C296.151 340.359 295.879 339.931 295.521 339.58C295.164 339.228 294.73 338.964 294.255 338.805C293.646 338.605 293.391 339.56 293.991 339.759C294.403 339.899 294.767 340.154 295.039 340.494C295.312 340.833 295.481 341.244 295.527 341.677C295.591 342.304 296.573 342.304 296.518 341.677L299.055 342.049C299.664 342.095 299.927 341.15 299.3 341.05Z" fill="#364153"/>
<path d="M84.9727 178.775H51.4999L32.3363 83.3134L62.9818 69.2385L84.9727 178.775Z" fill="#37474F"/>
<path d="M180.773 178.775H84.9727L62.9818 69.2385H158.791L180.773 178.775Z" fill="#455A64"/>
<path d="M67.7818 127.564H16.4818V232.767H67.7818V127.564Z" fill="#37474F"/>
<path d="M205.391 232.767H191.382L170.491 127.555H205.391V232.767Z" fill="#37474F"/>
<path d="M95.9728 127.564H67.7819V232.767H95.9728V127.564Z" fill="#455A64"/>
<path d="M233.582 127.564H205.391V232.767H233.582V127.564Z" fill="#455A64"/>
<path d="M205.4 178.775H95.9728V232.767H205.4V178.775Z" fill="#455A64"/>
<path d="M205.4 155.441H95.9728V179.002H205.4V155.441Z" fill="#455A64"/>
<path d="M74.6909 127.564L85.3273 127.373L95.9727 127.237H96.2909V127.564L96.4091 139.876V152.188C96.4091 160.366 96.4727 168.599 96.4091 176.804C96.3455 185.009 96.4091 193.223 96.2727 201.428C96.1364 209.633 96.0909 217.847 95.9182 226.052C95.7485 217.85 95.6273 209.642 95.5546 201.428C95.4546 193.25 95.4455 185.018 95.4182 176.804C95.3909 168.589 95.4182 160.393 95.4182 152.188L95.4636 139.876L95.5818 127.564L95.9091 127.882L85.2636 127.746L74.6909 127.564Z" fill="#263238"/>
<path d="M205.391 127.564C205.609 135.797 205.718 144.038 205.8 152.279L205.927 176.994L205.8 201.709L205.655 214.067L205.391 226.424L205.136 214.067L204.982 201.709L204.864 176.994L204.991 152.279C205.073 144.038 205.173 135.797 205.391 127.564Z" fill="#263238"/>
<path d="M205.391 178.775C196.3 178.993 187.155 179.102 178.036 179.184L150.682 179.311L123.327 179.184L109.691 179.039L96.0546 178.775L109.691 178.521L123.327 178.366L150.682 178.248L178.036 178.376C187.155 178.457 196.273 178.557 205.391 178.775Z" fill="#263238"/>
<path d="M205.391 155.441C196.3 155.659 187.155 155.759 178.036 155.841L150.682 155.968L123.327 155.85L109.691 155.696L96.0546 155.441L109.691 155.178L123.327 155.032L150.682 154.905L178.036 155.032C187.155 155.114 196.273 155.223 205.391 155.441Z" fill="#263238"/>
<path d="M35.9818 232.767L35.2818 241.29L33.6636 260.98H26.2363L24.6182 241.29L23.9272 232.767H35.9818Z" fill="#C7C7C7"/>
<path d="M23.9272 232.767H35.9818L35.2818 241.29H24.6182L23.9272 232.767Z" fill="#A6A6A6"/>
<path d="M87.9 232.767L87.2091 241.29L85.5909 260.98H78.1636L76.5455 241.29L75.8455 232.767H87.9Z" fill="#C7C7C7"/>
<path d="M75.8455 232.767H87.9L87.2091 241.29H76.5455L75.8455 232.767Z" fill="#A6A6A6"/>
<path d="M174.027 232.767L173.336 241.29L171.718 260.98H164.291L162.673 241.29L161.973 232.767H174.027Z" fill="#C7C7C7"/>
<path d="M161.973 232.767H174.027L173.336 241.29H162.673L161.973 232.767Z" fill="#A6A6A6"/>
<path d="M225.964 232.767L225.273 241.29L223.655 260.98H216.227L214.609 241.29L213.909 232.767H225.964Z" fill="#C7C7C7"/>
<path d="M225.964 232.767L225.273 241.29H214.609L213.909 232.767H225.964Z" fill="#A6A6A6"/>
<path d="M0.563599 260.98L50.4272 260.762L100.282 260.68L200 260.526L299.718 260.68L349.573 260.762L399.436 260.98L349.573 261.207L299.718 261.28L200 261.434L100.282 261.28L50.4272 261.198L0.563599 260.98Z" fill="#263238"/>
<path d="M389.582 172.497C377.473 188.852 364.846 207.934 361.773 228.46C361.773 228.778 362.236 228.878 362.309 228.569C363.698 222.963 365.488 217.464 367.664 212.113C375.618 209.924 383.436 208.124 387.618 200.228C391.882 192.105 391.336 181.519 390.527 172.678C390.473 172.206 389.827 172.179 389.582 172.497Z" fill="#06B6D4"/>
<path d="M367.782 211.959C373.236 199.756 380.209 187.507 389.082 177.476C389.136 177.403 389.236 177.476 389.182 177.576C383.364 184.718 378.955 192.496 374.636 200.419C378.646 196.348 383.046 192.705 386.836 188.389C386.909 188.307 387.027 188.389 386.964 188.516C383.191 193.059 379.073 197.948 374.164 201.301C372.836 203.724 371.503 206.147 370.164 208.57L371.173 208.052C371.236 208.052 371.291 208.115 371.227 208.143C370.855 208.333 370.482 208.533 370.091 208.697C369.455 209.851 368.827 211.005 368.173 212.159C368.027 212.44 367.664 212.213 367.782 211.959Z" fill="#263238"/>
<path d="M371.818 207.697C375.076 205.878 378.185 203.806 381.118 201.5C381.191 201.437 381.309 201.546 381.227 201.609C378.388 204.062 375.277 206.181 371.955 207.925C371.925 207.934 371.894 207.933 371.865 207.922C371.837 207.911 371.813 207.891 371.797 207.865C371.781 207.838 371.775 207.808 371.779 207.777C371.783 207.747 371.796 207.719 371.818 207.697Z" fill="#263238"/>
<path d="M360.373 225.407C360.383 225.458 360.411 225.504 360.452 225.537C360.492 225.571 360.543 225.589 360.596 225.589C360.648 225.589 360.699 225.571 360.739 225.537C360.78 225.504 360.808 225.458 360.818 225.407C360.882 218.637 360.818 211.841 360.927 205.035C362.655 201.537 366.382 199.583 368.973 196.794C370.834 194.748 372.454 192.495 373.8 190.079C376.916 184.299 378.824 177.946 379.409 171.406C380.118 164.137 377.373 140.267 374.318 141.103C372.736 141.53 367.609 153.361 366.255 157.277C364.048 163.729 362.432 170.368 361.427 177.112C358.955 193.023 359.164 209.378 360.373 225.407Z" fill="#06B6D4"/>
<path d="M360.327 196.212C360.7 187.644 362.627 178.993 364.436 170.688C366.382 161.738 368.655 153.315 373.264 145.328C373.285 145.306 373.313 145.293 373.344 145.289C373.374 145.285 373.405 145.291 373.431 145.307C373.457 145.323 373.477 145.347 373.488 145.375C373.499 145.404 373.5 145.435 373.491 145.464C370.423 151.674 368.045 158.201 366.4 164.928C366.709 164.446 367.082 164.019 367.409 163.537C367.536 163.356 367.827 163.537 367.7 163.71C367.291 164.433 366.81 165.111 366.264 165.736C366.254 165.741 366.243 165.743 366.232 165.743C366.221 165.743 366.21 165.741 366.2 165.736C364.618 172.097 363.473 178.675 362.509 185.208L362.718 184.954C362.729 184.945 362.743 184.94 362.757 184.939C362.771 184.939 362.785 184.943 362.797 184.951C362.808 184.96 362.817 184.972 362.821 184.985C362.824 184.999 362.824 185.014 362.818 185.027C362.7 185.245 362.564 185.463 362.436 185.681C361.945 188.988 361.527 192.296 361.027 195.576C366.936 190.533 371.936 184.591 374.818 177.267C374.818 177.267 374.882 177.267 374.873 177.267C372.082 184.863 367.691 191.614 360.936 196.221C360.809 197.13 360.691 197.984 360.564 198.865C360.564 199.047 360.245 198.993 360.245 198.865C360.245 198.084 360.291 197.303 360.318 196.521C360.264 196.421 360.218 196.267 360.327 196.212Z" fill="#263238"/>
<path d="M363.1 183.8C367.645 177.076 371.827 170.543 375.127 163.101C375.127 163.019 375.309 163.101 375.273 163.165C372.491 170.552 368.6 178.039 363.327 183.973C363.227 184.091 363.009 183.936 363.1 183.8Z" fill="#263238"/>
<path d="M369.091 161.438C370.955 158.14 372.927 154.923 374.682 151.552C374.736 151.462 374.864 151.552 374.827 151.634C373.382 155.156 371.553 158.508 369.373 161.629C369.347 161.667 369.308 161.692 369.264 161.701C369.22 161.709 369.174 161.7 369.136 161.675C369.099 161.649 369.073 161.61 369.065 161.566C369.056 161.522 369.066 161.476 369.091 161.438Z" fill="#263238"/>
<path d="M368.364 162.874V162.938C368.364 162.938 368.327 162.874 368.364 162.874Z" fill="#263238"/>
<path d="M355.791 205.835C355.697 210.322 355.167 214.789 354.209 219.174C354.273 219.655 354.346 220.137 354.418 220.627C355.798 215.784 356.598 210.794 356.8 205.762C356.841 205.693 356.862 205.615 356.862 205.535C356.862 205.455 356.841 205.376 356.8 205.308C356.991 198.559 356.489 191.809 355.3 185.163C353.2 172.724 348.618 160.793 339.946 151.462C339.873 151.401 339.788 151.357 339.696 151.334C339.604 151.311 339.508 151.309 339.415 151.328C339.323 151.348 339.235 151.387 339.16 151.445C339.085 151.503 339.024 151.577 338.982 151.661C335.482 160.566 336.7 171.188 339.682 180.066C341.318 184.871 343.648 189.411 346.6 193.541C349.573 197.72 353.373 201.264 355.791 205.835Z" fill="#06B6D4"/>
<path d="M341 155.614C349.182 168.953 354.945 184.781 355.645 200.537C355.645 200.819 355.191 200.892 355.145 200.61C354.955 199.192 354.736 197.793 354.509 196.394C351.1 193.141 347.609 189.697 345.173 185.626C345.127 185.554 345.236 185.472 345.291 185.536C348.122 189.003 351.157 192.298 354.382 195.403C353.791 191.914 353.1 188.489 352.273 185.109C352.045 184.854 351.836 184.6 351.618 184.345C351.4 184.091 351.709 183.927 351.864 184.1L352.064 184.318C350.902 179.693 349.463 175.141 347.755 170.688C345.664 168.19 343.327 166.036 341.8 163.029C341.794 163.014 341.793 162.998 341.798 162.984C341.803 162.969 341.813 162.956 341.826 162.949C341.84 162.941 341.856 162.938 341.871 162.941C341.886 162.944 341.9 162.953 341.909 162.965C343.136 164.682 344.318 166.409 345.709 168.008C346.264 168.644 346.873 169.235 347.445 169.825C345.554 164.986 343.306 160.293 340.718 155.787C340.714 155.752 340.72 155.717 340.735 155.686C340.75 155.654 340.774 155.628 340.804 155.61C340.833 155.592 340.868 155.583 340.902 155.583C340.937 155.584 340.971 155.595 341 155.614Z" fill="#263238"/>
<path d="M342.655 172.079C345.318 175.65 348.346 179.066 350.836 182.764C350.909 182.864 350.755 182.973 350.664 182.891C347.491 179.911 344.8 175.849 342.482 172.179C342.409 172.06 342.582 171.97 342.655 172.079Z" fill="#263238"/>
<path d="M351.191 183.591L351.309 183.7C351.322 183.718 351.329 183.739 351.327 183.761C351.326 183.783 351.316 183.803 351.301 183.819C351.285 183.834 351.265 183.844 351.243 183.845C351.221 183.847 351.199 183.84 351.182 183.827L351.073 183.709C351.057 183.694 351.048 183.672 351.048 183.65C351.048 183.628 351.057 183.607 351.073 183.591C351.088 183.575 351.11 183.567 351.132 183.567C351.154 183.567 351.175 183.575 351.191 183.591Z" fill="#263238"/>
<path d="M328.109 181.265C328.773 188.134 332.382 196.33 336.791 201.619C338.726 203.923 341.123 205.796 343.827 207.116C346.873 208.624 350.073 210.36 353.218 211.595C354.723 215.411 355.838 219.368 356.546 223.408C356.655 223.063 356.755 222.699 356.855 222.354C354.827 204.971 343.573 190.115 329.182 180.556C329.067 180.481 328.934 180.441 328.797 180.442C328.66 180.442 328.526 180.482 328.412 180.558C328.298 180.633 328.208 180.74 328.155 180.866C328.101 180.992 328.085 181.13 328.109 181.265Z" fill="#06B6D4"/>
<path d="M333.082 186.399C332.982 186.308 333.082 186.126 333.227 186.208C341.136 192.09 347.443 199.859 351.573 208.806C351.673 209.042 351.345 209.251 351.209 209.015C350.549 207.846 349.867 206.701 349.164 205.58C345.882 204.962 342.8 202.654 340.327 200.465C340.319 200.451 340.315 200.434 340.317 200.418C340.319 200.402 340.326 200.387 340.338 200.375C340.349 200.364 340.365 200.356 340.381 200.354C340.397 200.353 340.413 200.356 340.427 200.365C341.685 201.506 343.081 202.486 344.582 203.281C345.927 203.963 347.364 204.39 348.764 204.935C347.545 203 346.273 201.155 344.945 199.356C341.399 198.002 338.072 196.131 335.073 193.804C334.982 193.741 335.073 193.586 335.164 193.65C338.135 195.444 341.2 197.079 344.345 198.547C342.34 195.901 340.176 193.38 337.864 190.997C336.745 190.415 335.618 189.815 334.536 189.179C334.513 189.171 334.495 189.154 334.485 189.131C334.474 189.109 334.473 189.084 334.482 189.061C334.49 189.038 334.507 189.02 334.53 189.009C334.552 188.999 334.577 188.998 334.6 189.007C335.501 189.326 336.362 189.75 337.164 190.27C335.855 188.998 334.545 187.662 333.082 186.399Z" fill="#263238"/>
<path d="M333.391 192.405C333.582 192.522 333.764 192.652 333.936 192.796C333.991 192.796 333.936 192.914 333.873 192.887C333.67 192.793 333.476 192.684 333.291 192.559C333.27 192.546 333.256 192.525 333.251 192.501C333.246 192.478 333.25 192.453 333.264 192.432C333.277 192.412 333.298 192.397 333.322 192.392C333.346 192.387 333.37 192.392 333.391 192.405Z" fill="#263238"/>
<path d="M379.318 261.044H339.873L343.055 225.143L343.755 217.229H375.436L376.136 225.143L379.318 261.044Z" fill="#455A64"/>
<path d="M376.136 225.143H343.055L343.755 217.229H375.436L376.136 225.143Z" fill="#263238"/>
<path d="M377.327 211.686H341.873V219.519H377.327V211.686Z" fill="#455A64"/>
<path d="M216.718 296.517C220.082 301.342 227.891 328.647 230.164 330.019C232.436 331.391 241.573 335.034 243.164 337.079C244.754 339.123 246.354 342.322 244.764 343.23C243.173 344.139 216.491 343.467 211.927 343.23C207.364 342.994 187.564 329.792 185.254 326.366C182.945 322.94 154.473 296.29 156.982 289.448C159.491 282.606 203.036 276.918 216.718 296.517Z" fill="#06B6D4"/>
<path opacity="0.1" d="M216.718 296.517C220.082 301.342 227.891 328.647 230.164 330.019C232.436 331.391 241.573 335.034 243.164 337.079C244.754 339.123 246.354 342.322 244.764 343.23C243.173 344.139 216.491 343.467 211.927 343.23C207.364 342.994 187.564 329.792 185.254 326.366C182.945 322.94 154.473 296.29 156.982 289.448C159.491 282.606 203.036 276.918 216.718 296.517Z" fill="black"/>
<path opacity="0.1" d="M224.6 316.716C218.155 319.824 211.5 323.077 211.5 323.077L197.555 335.87C191.809 332.127 186.4 328.056 185.255 326.366C182.945 322.94 154.464 296.281 156.982 289.439C159.5 282.597 203.036 276.909 216.709 296.508C218.564 299.161 221.736 308.548 224.6 316.716Z" fill="black"/>
<path d="M239.091 339.578C238.472 339.059 237.788 338.625 237.055 338.287C236.287 337.956 235.497 337.68 234.691 337.461C234.679 337.456 234.665 337.455 234.652 337.457C234.64 337.459 234.627 337.464 234.617 337.471C234.606 337.479 234.597 337.489 234.591 337.5C234.585 337.512 234.582 337.525 234.582 337.538C234.582 337.551 234.585 337.564 234.591 337.575C234.597 337.587 234.606 337.597 234.617 337.604C234.627 337.612 234.64 337.617 234.652 337.619C234.665 337.621 234.679 337.619 234.691 337.615C236.148 338.183 237.459 339.071 238.527 340.214C239.609 341.204 240.529 342.356 241.255 343.63C241.327 343.767 241.527 343.63 241.5 343.539C241.145 341.994 240.3 340.604 239.091 339.578Z" fill="#263238"/>
<path d="M243.073 338.187C242.452 337.675 241.767 337.244 241.036 336.906C240.269 336.575 239.479 336.299 238.673 336.079C238.662 336.074 238.65 336.071 238.638 336.071C238.626 336.071 238.614 336.073 238.603 336.078C238.592 336.082 238.583 336.09 238.575 336.098C238.567 336.107 238.561 336.118 238.558 336.13C238.554 336.141 238.553 336.153 238.555 336.165C238.557 336.177 238.561 336.188 238.568 336.198C238.575 336.208 238.583 336.216 238.594 336.222C238.604 336.229 238.615 336.233 238.627 336.234C240.082 336.798 241.39 337.683 242.454 338.824C243.538 339.815 244.458 340.971 245.182 342.249C245.254 342.385 245.454 342.249 245.427 342.149C245.087 340.611 244.262 339.222 243.073 338.187Z" fill="#263238"/>
<path d="M172.518 311.501C167.845 306.776 162.518 302.741 157.709 298.189C154.872 295.692 152.359 292.85 150.227 289.73C150.164 289.63 150.009 289.73 150.073 289.82C151.782 292.585 153.687 295.224 155.773 297.717C157.949 300.229 160.271 302.611 162.727 304.849C167.482 309.284 172.6 313.391 176.836 318.352C179.264 321.056 181.325 324.068 182.964 327.311C182.964 327.411 183.173 327.311 183.136 327.238C180.909 321.169 177.045 316.071 172.518 311.501Z" fill="#263238"/>
<path d="M194.973 333.99C191.736 332.309 189.445 329.583 187.082 326.884C185.936 325.566 184.827 324.203 183.636 322.931C182.118 321.323 180.555 319.787 179.173 318.061C179.1 317.97 178.955 318.061 179.027 318.161C181.573 321.341 183.509 324.949 186.255 327.983C188.626 330.668 191.58 332.775 194.891 334.144C194.91 334.148 194.93 334.146 194.948 334.137C194.966 334.129 194.981 334.115 194.99 334.098C194.999 334.08 195.003 334.06 195 334.041C194.996 334.021 194.987 334.003 194.973 333.99Z" fill="#263238"/>
<path d="M142.9 252.884C147 262.816 131.991 290.248 126.709 295.036C121.427 299.825 104.827 311.664 103.682 313.954C102.536 316.244 104.209 330.909 105.582 332.499C106.955 334.089 112.336 335.298 113.818 336.697C115.1 337.915 117.282 340.704 115.573 342.404C113.864 344.103 92.0637 343.312 90.0091 342.404C87.9546 341.495 75.6364 311.9 75.6364 306.43C75.6364 300.96 70.7091 252.412 87.9546 244.888C105.2 237.365 136.973 238.528 142.9 252.884Z" fill="#06B6D4"/>
<path opacity="0.1" d="M142.9 252.884C147 262.816 131.991 290.248 126.709 295.036C121.427 299.825 104.827 311.664 103.682 313.954C102.536 316.244 104.209 330.909 105.582 332.499C106.955 334.089 112.336 335.298 113.818 336.697C115.1 337.915 117.282 340.704 115.573 342.404C113.864 344.103 92.0637 343.312 90.0091 342.404C87.9546 341.495 75.6364 311.9 75.6364 306.43C75.6364 300.96 70.7091 252.412 87.9546 244.888C105.2 237.365 136.973 238.528 142.9 252.884Z" fill="black"/>
<path d="M136.782 278.353C135.689 280.636 134.475 282.86 133.145 285.014C132.5 286.059 131.836 287.076 131.145 288.094C130.454 289.112 129.6 290.111 128.791 291.111C127.076 293.084 125.229 294.939 123.264 296.663C122.254 297.626 121.218 298.562 120.236 299.543C119.254 300.524 118.154 301.733 117.018 302.696C116.927 302.769 117.064 302.887 117.145 302.814C118.345 301.796 119.718 300.933 120.991 300.015C122.264 299.098 123.345 298.253 124.509 297.353C126.642 295.805 128.585 294.012 130.3 292.01C133.5 287.985 135.091 283.115 136.9 278.381C136.964 278.335 136.827 278.281 136.782 278.353Z" fill="#263238"/>
<path d="M152.791 250.958C145.936 259.517 141.109 269.558 137.755 279.953C137.291 281.406 136.846 282.869 136.409 284.341C135.973 285.813 135.682 287.485 135.146 289.003C135.146 289.112 135.282 289.157 135.318 289.048C135.773 287.694 136.427 286.422 136.982 285.114C137.536 283.805 138.009 282.606 138.518 281.352C139.555 278.838 140.585 276.318 141.609 273.792C143.646 268.758 145.773 263.742 148.246 258.899C149.661 256.203 151.23 253.591 152.946 251.076C153.009 250.985 152.855 250.867 152.791 250.958Z" fill="#263238"/>
<path d="M109.809 339.578C109.191 339.059 108.506 338.625 107.773 338.287C107.005 337.956 106.216 337.68 105.409 337.461C105.397 337.456 105.384 337.455 105.371 337.457C105.358 337.459 105.345 337.464 105.335 337.471C105.324 337.479 105.316 337.489 105.31 337.5C105.304 337.512 105.3 337.525 105.3 337.538C105.3 337.551 105.304 337.564 105.31 337.575C105.316 337.587 105.324 337.597 105.335 337.604C105.345 337.612 105.358 337.617 105.371 337.619C105.384 337.621 105.397 337.619 105.409 337.615C106.866 338.183 108.178 339.071 109.245 340.214C110.324 341.206 111.244 342.359 111.973 343.63C112.036 343.767 112.245 343.63 112.209 343.539C111.863 341.993 111.02 340.601 109.809 339.578Z" fill="#263238"/>
<path d="M113.8 338.187C113.179 337.675 112.495 337.244 111.764 336.906C110.996 336.575 110.206 336.299 109.4 336.079C109.291 336.079 109.255 336.198 109.355 336.234C110.812 336.798 112.123 337.683 113.191 338.824C114.272 339.817 115.192 340.973 115.918 342.249C115.991 342.385 116.191 342.249 116.164 342.149C115.821 340.61 114.992 339.221 113.8 338.187Z" fill="#263238"/>
<path opacity="0.1" d="M126.709 295.036C121.464 299.852 104.818 311.664 103.682 313.963C102.545 316.262 104.209 330.909 105.582 332.499C106.955 334.089 112.345 335.298 113.818 336.706C114.8 337.615 116.309 339.487 116.191 341.077C111.509 340.368 106.8 339.323 105.182 337.842C97.5273 330.837 88.8182 323.967 87.4 323.967C86.491 323.967 83.7637 324.085 81.2819 324.213C78.2637 316.616 75.6364 308.947 75.6364 306.439C75.6364 300.988 70.7091 252.421 87.9546 244.897C105.2 237.374 136.973 238.537 142.9 252.884C147.009 262.816 131.955 290.238 126.709 295.036Z" fill="black"/>
<path d="M236.855 239.881C236.855 239.881 214.873 182.928 205.1 178.203C195.327 173.478 183.127 236.165 188.982 245.397C194.836 254.629 218.836 260.153 220.582 259.817C222.327 259.481 237.555 247.632 236.855 239.881Z" fill="#06B6D4"/>
<g opacity="0.1">
<path d="M236.855 239.881C236.855 239.881 214.873 182.928 205.1 178.203C195.327 173.478 183.127 236.165 188.982 245.397C194.836 254.629 218.836 260.153 220.582 259.817C222.327 259.481 237.555 247.632 236.855 239.881Z" fill="black"/>
</g>
<path opacity="0.1" d="M220.582 259.872C218.845 260.199 194.845 254.683 188.982 245.451C186.518 241.562 187.254 228.187 189.664 214.394C196.109 214.012 213.682 212.986 214.827 213.485C215.673 213.876 224.973 222.018 232.236 228.46C235.045 235.238 236.854 239.909 236.854 239.909C237.564 247.632 222.327 259.499 220.582 259.872Z" fill="black"/>
<path d="M89.2819 202.564C91.3637 199.701 86.8728 194.758 81.5182 194.54C76.1637 194.322 65.3546 204.199 66.6 205.726C67.8455 207.252 85.1819 208.215 89.2819 202.564Z" fill="#06B6D4"/>
<path d="M219.9 310.01C215.036 309.284 195.455 339.832 185.455 343.53C175.455 347.228 117.618 342.822 108.864 337.024C100.109 331.227 80.9 305.04 75.7636 297.58C70.6273 290.12 50.6909 278.044 47.2727 267.341C43.8545 256.637 51.3091 226.515 57.0545 218.219C62.8 209.924 82.4272 196.521 95.3636 199.801C108.3 203.081 149.909 236.147 158.918 231.876C167.573 227.769 193.573 211.205 210.236 218.11C226.9 225.016 245.264 246.124 245.909 258.808C246.555 271.493 242.864 280.616 243.891 281.461C245.127 282.506 265.891 290.22 268.909 291.656C271.455 292.855 263.973 305.031 254.036 309.247C245.9 312.718 226 310.928 219.9 310.01Z" fill="#06B6D4"/>
<path d="M85.7818 199.983C82.9321 200.428 80.1438 201.203 77.4727 202.291C76.1838 202.867 74.9274 203.513 73.7091 204.226C72.4 204.99 71.2273 205.926 69.9637 206.734C69.8637 206.798 69.9636 206.952 70.0546 206.889C71.2915 206.186 72.5695 205.558 73.8818 205.008C75.2091 204.402 76.5515 203.821 77.9091 203.263C80.5182 202.2 83.1273 200.955 85.8273 200.128C85.9182 200.101 85.8727 199.965 85.7818 199.983Z" fill="#263238"/>
<path d="M47.2728 267.341C50.6909 278.044 70.5909 290.129 75.7273 297.58C80.8637 305.031 100.064 331.2 108.818 337.024C117.573 342.849 175.364 347.219 185.409 343.53C195.455 339.841 215.036 309.293 219.9 310.01C226 310.919 245.891 312.736 254.064 309.247C264 305.022 271.482 292.892 268.936 291.656C265.909 290.22 245.145 282.506 243.918 281.461C242.891 280.552 246.582 271.466 245.936 258.808C245.764 255.319 243.955 251.167 241.491 246.396C238.282 244.97 236.336 249.822 236.845 254.238C237.355 258.654 239.009 262.27 239.2 269.294C239.391 276.318 236.873 285.931 232.727 288.376C223.909 293.637 213.636 281.852 208.555 283.296C203.473 284.741 197.209 290.384 197.091 293.491C196.973 296.599 199.245 302.905 199.082 303.341C198.918 303.777 190.691 313.645 187.082 316.226C183.473 318.806 176.991 320.832 176.991 320.832C180.051 320.752 183.086 320.251 186.009 319.342C185.245 319.733 172.636 327.938 167.391 328.129C161.982 328.329 128 330.201 117.209 328.192C106.418 326.184 87.6364 288.776 71.8182 284.041C56 279.307 54.6637 263.088 54.8909 256.928C55.1182 250.767 70.1818 237.537 69.4091 228.069C68.8637 221.336 62.2909 218.983 56.6818 218.928C50.9637 228.069 44 256.919 47.2728 267.341Z" fill="white"/>
<path d="M47.2727 267.341C48.4181 270.73 50.6909 273.592 53.0545 276.218C55.492 278.815 58.0685 281.278 60.7727 283.596L68.8727 290.547C70.209 291.729 71.5363 292.919 72.8 294.182C74.085 295.419 75.2339 296.79 76.2272 298.271C80.3303 304.086 84.5727 309.792 88.9545 315.39C93.309 321.043 97.9483 326.472 102.854 331.654C104.1 332.926 105.373 334.162 106.727 335.289C107.4 335.867 108.104 336.406 108.836 336.906C109.581 337.379 110.377 337.766 111.209 338.06C114.58 339.192 118.036 340.049 121.545 340.623C128.545 341.877 135.627 342.703 142.709 343.349C149.791 343.994 156.909 344.439 164.018 344.63C167.573 344.721 171.136 344.748 174.691 344.63C176.509 344.575 178.236 344.484 180.009 344.321C181.766 344.199 183.506 343.894 185.2 343.412C186.829 342.752 188.339 341.831 189.673 340.686C191.056 339.564 192.379 338.369 193.636 337.106C196.145 334.598 198.509 331.936 200.836 329.246C203.164 326.557 205.427 323.795 207.727 321.069C210.027 318.343 212.327 315.617 214.854 313.091C215.482 312.45 216.144 311.844 216.836 311.273C217.523 310.651 218.322 310.163 219.191 309.838C219.441 309.762 219.704 309.738 219.964 309.765L220.618 309.856L221.945 310.029L224.591 310.31C228.127 310.656 231.673 310.892 235.227 310.983C238.775 311.094 242.327 311 245.864 310.701C249.382 310.356 252.927 309.792 255.982 307.975C259.061 306.229 261.826 303.981 264.164 301.324C265.316 300.015 266.356 298.61 267.273 297.126C267.74 296.387 268.153 295.616 268.509 294.818C268.885 294.078 269.075 293.258 269.064 292.428C269 292.047 268.873 291.992 268.391 291.783L267.164 291.274L264.691 290.284L259.718 288.339L249.791 284.405C248.136 283.742 246.482 283.078 244.845 282.333L244.236 282.042C243.972 281.928 243.736 281.758 243.545 281.543C243.408 281.28 243.345 280.985 243.364 280.689C243.364 280.443 243.364 280.216 243.418 279.989C243.527 279.08 243.709 278.172 243.873 277.327C244.6 273.857 245.116 270.346 245.418 266.814C245.564 265.051 245.63 263.285 245.618 261.516C245.618 260.608 245.618 259.699 245.545 258.863C245.495 257.999 245.368 257.142 245.164 256.301C244.2 252.906 242.845 249.634 241.127 246.551L241.327 246.742C241.077 246.62 240.805 246.55 240.527 246.534C240.249 246.518 239.971 246.558 239.709 246.651C239.181 246.898 238.738 247.297 238.436 247.796C237.784 248.883 237.386 250.104 237.273 251.367C237.135 252.648 237.184 253.943 237.418 255.21C237.627 256.501 237.918 257.791 238.218 259.081C239.602 264.281 239.963 269.7 239.282 275.037C238.911 277.707 238.224 280.324 237.236 282.833C236.736 284.113 236.092 285.332 235.318 286.468C234.918 287.036 234.458 287.56 233.945 288.03C233.419 288.5 232.828 288.892 232.191 289.193C230.934 289.797 229.566 290.134 228.173 290.184C226.8 290.217 225.431 290.045 224.109 289.675C221.541 288.876 219.066 287.804 216.727 286.477C215.554 285.859 214.382 285.232 213.2 284.659C212.067 284.073 210.833 283.71 209.564 283.587C209.257 283.569 208.95 283.603 208.654 283.687C208.345 283.769 208.036 283.869 207.745 283.978C207.139 284.206 206.547 284.47 205.973 284.768C203.649 285.968 201.547 287.553 199.754 289.457C198.853 290.365 198.132 291.435 197.627 292.61C197.531 292.885 197.472 293.173 197.454 293.464C197.432 293.782 197.432 294.101 197.454 294.418C197.513 295.065 197.607 295.708 197.736 296.345C197.982 297.626 198.318 298.907 198.645 300.188L199.173 302.114C199.272 302.457 199.345 302.806 199.391 303.159V303.268C199.395 303.323 199.395 303.377 199.391 303.432L199.3 303.586C199.247 303.671 199.189 303.753 199.127 303.832L198.818 304.232C197.982 305.276 197.118 306.294 196.255 307.303C194.509 309.311 192.727 311.292 190.864 313.2C189.928 314.157 188.945 315.067 187.918 315.926C186.874 316.773 185.744 317.507 184.545 318.116C182.15 319.309 179.667 320.317 177.118 321.132L177.009 320.469C178.532 320.428 180.051 320.285 181.555 320.042C183.05 319.816 184.524 319.47 185.964 319.006L188.691 318.097L186.236 319.597C182.359 322.045 178.347 324.272 174.218 326.266C173.173 326.748 172.109 327.175 171.018 327.584C169.92 328.002 168.77 328.271 167.6 328.383L160.736 328.683C151.582 329.065 142.418 329.374 133.254 329.337C128.709 329.337 124.082 329.219 119.509 328.728C118.936 328.647 118.364 328.583 117.791 328.483C117.208 328.402 116.635 328.259 116.082 328.056C114.999 327.614 113.984 327.024 113.064 326.302C111.25 324.881 109.564 323.303 108.027 321.587C104.918 318.206 102.091 314.59 99.2636 310.992C96.4363 307.394 93.6363 303.777 90.709 300.252C87.8308 296.712 84.7145 293.373 81.3818 290.257C79.6969 288.706 77.8708 287.315 75.9272 286.104C74.9567 285.511 73.938 285 72.8818 284.578C71.8363 284.178 70.6999 283.896 69.6454 283.433C65.3199 281.731 61.6553 278.686 59.1909 274.746C56.7941 270.777 55.3474 266.309 54.9636 261.689C54.8454 260.553 54.7909 259.399 54.7818 258.254C54.7667 257.678 54.7879 257.101 54.8454 256.528C54.924 255.948 55.0736 255.381 55.2909 254.838C56.2275 252.74 57.3856 250.748 58.7454 248.895C61.3545 245.124 64.1999 241.499 66.4181 237.519C67.5996 235.565 68.4994 233.455 69.0909 231.249C69.7219 229.032 69.4801 226.658 68.4151 224.614C67.3501 222.569 65.5426 221.009 63.3636 220.255C61.2204 219.414 58.9386 218.983 56.6363 218.983H56.6909C54.658 222.615 53.0243 226.457 51.8181 230.441C50.5545 234.421 49.5 238.464 48.6181 242.544C47.737 246.623 47.0904 250.749 46.6818 254.901C46.4881 256.979 46.4032 259.066 46.4272 261.153C46.4351 263.244 46.7194 265.324 47.2727 267.341ZM47.2727 267.341C46.715 265.325 46.4307 263.244 46.4272 261.153C46.3923 259.066 46.4712 256.979 46.6636 254.901C47.0586 250.743 47.6961 246.61 48.5727 242.526C49.4818 238.446 50.4818 234.348 51.7363 230.413C52.9192 226.399 54.5379 222.527 56.5636 218.865C58.8692 218.878 61.1527 219.315 63.2999 220.155C65.4812 220.972 67.3014 222.537 68.4363 224.571C69.4713 226.662 69.7197 229.054 69.1363 231.313C68.5749 233.548 67.693 235.691 66.5181 237.673C64.2545 241.672 61.4545 245.315 58.8636 249.086C57.5115 250.924 56.3652 252.904 55.4454 254.992C55.2335 255.514 55.0869 256.061 55.009 256.619C54.9586 257.184 54.9404 257.751 54.9545 258.318C54.9545 259.454 55.0272 260.599 55.1454 261.725C55.5252 266.288 56.9565 270.701 59.3272 274.619C61.7647 278.499 65.3851 281.493 69.6545 283.16C70.709 283.614 71.809 283.878 72.8909 284.305C73.9681 284.723 75.0056 285.237 75.9909 285.841C77.9379 287.057 79.7644 288.457 81.4454 290.02C84.8303 293.126 87.9926 296.466 90.909 300.015C93.8454 303.532 96.6636 307.148 99.4909 310.746C102.318 314.345 105.164 317.934 108.264 321.287C109.785 322.978 111.452 324.531 113.245 325.93C114.134 326.621 115.112 327.186 116.154 327.611C117.231 327.941 118.341 328.154 119.464 328.247C124.009 328.728 128.554 328.792 133.154 328.819C142.309 328.819 151.464 328.51 160.609 328.102L167.464 327.793C168.575 327.678 169.667 327.415 170.709 327.011C171.779 326.633 172.829 326.199 173.854 325.712C177.969 323.705 181.969 321.472 185.836 319.024L186.091 319.624C184.608 320.108 183.088 320.469 181.545 320.705C180.02 320.954 178.481 321.103 176.936 321.15L174.709 321.205L176.827 320.487C181.809 318.788 186.827 316.853 190.318 312.718C192.136 310.828 193.954 308.857 195.664 306.848C196.527 305.84 197.382 304.831 198.2 303.795L198.5 303.414L198.618 303.25V303.196C198.618 303.196 198.618 303.196 198.618 303.241C198.618 303.287 198.618 303.241 198.618 303.241C198.574 302.934 198.51 302.631 198.427 302.332L197.9 300.424C197.545 299.134 197.209 297.844 196.991 296.526C196.864 295.863 196.755 295.2 196.691 294.518C196.668 294.17 196.668 293.821 196.691 293.473C196.706 293.104 196.78 292.739 196.909 292.392C197.438 291.111 198.209 289.945 199.182 288.957C201.034 286.983 203.207 285.337 205.609 284.087C206.214 283.776 206.836 283.5 207.473 283.26C207.8 283.142 208.118 283.033 208.454 282.942C208.812 282.839 209.183 282.793 209.555 282.806C210.938 282.919 212.285 283.305 213.518 283.942C214.745 284.505 215.918 285.132 217.1 285.759C219.386 287.053 221.807 288.095 224.318 288.866C226.775 289.652 229.436 289.494 231.782 288.421C232.923 287.876 233.892 287.028 234.582 285.968C235.314 284.901 235.924 283.755 236.4 282.551C237.352 280.108 238.014 277.562 238.373 274.964C239.056 269.736 238.713 264.424 237.364 259.326C237.073 258.036 236.773 256.728 236.564 255.401C236.318 254.055 236.272 252.681 236.427 251.321C236.557 249.928 237.002 248.583 237.727 247.387C238.123 246.743 238.707 246.235 239.4 245.933C239.764 245.799 240.151 245.74 240.538 245.759C240.926 245.777 241.305 245.874 241.654 246.042L241.791 246.097L241.855 246.224C243.595 249.388 244.965 252.741 245.936 256.219C246.155 257.113 246.286 258.026 246.327 258.945C246.327 259.853 246.391 260.762 246.4 261.671C246.4 263.488 246.327 265.275 246.182 267.032C245.866 270.592 245.337 274.129 244.6 277.626C244.427 278.535 244.254 279.371 244.145 280.225C244.117 280.433 244.102 280.642 244.1 280.852C244.089 281.003 244.108 281.154 244.154 281.297C244.282 281.392 244.419 281.475 244.564 281.543L245.145 281.824C246.755 282.56 248.409 283.224 250.054 283.887L260 287.694L264.973 289.648L267.454 290.647L268.691 291.165C268.933 291.26 269.162 291.385 269.373 291.538C269.585 291.751 269.719 292.03 269.755 292.328C269.789 293.274 269.579 294.213 269.145 295.054C268.776 295.881 268.348 296.679 267.864 297.444C264.935 302.003 260.958 305.794 256.264 308.502C254.684 309.388 252.985 310.04 251.218 310.438C249.467 310.833 247.69 311.103 245.9 311.246C242.339 311.544 238.762 311.629 235.191 311.501C231.627 311.398 228.07 311.167 224.518 310.81L221.855 310.51L220.527 310.338L219.864 310.247C219.68 310.23 219.495 310.248 219.318 310.301C218.519 310.612 217.783 311.064 217.145 311.637C216.473 312.191 215.827 312.8 215.2 313.454C212.691 315.962 210.391 318.679 208.082 321.387C205.773 324.094 203.536 326.839 201.164 329.519C198.791 332.199 196.454 334.871 193.891 337.388C192.631 338.668 191.305 339.881 189.918 341.022C188.545 342.201 186.988 343.146 185.309 343.821C183.582 344.307 181.809 344.611 180.018 344.73C178.2 344.893 176.454 344.975 174.673 345.03C171.109 345.129 167.545 345.093 163.982 345.03C156.864 344.821 149.745 344.348 142.654 343.694C135.564 343.04 128.482 342.176 121.473 340.904C117.95 340.317 114.481 339.445 111.1 338.296C110.253 337.997 109.442 337.603 108.682 337.124C107.945 336.616 107.235 336.07 106.554 335.489C105.2 334.326 103.927 333.081 102.682 331.809C97.7363 326.666 93.2545 321.123 88.8545 315.526C84.4545 309.929 80.2272 304.195 76.1272 298.362C75.1378 296.885 73.9951 295.518 72.7181 294.282C71.4545 293.028 70.1363 291.829 68.7999 290.647L60.7181 283.669C58.0341 281.328 55.4788 278.844 53.0636 276.227C50.7 273.601 48.4363 270.775 47.2727 267.341Z" fill="#DBDBDB"/>
<path d="M262.618 299.325C266.382 299.634 271.664 294.427 270.8 292.601C269.936 290.775 254.936 288.748 253.891 290.057C252.846 291.365 258.527 298.998 262.618 299.325Z" fill="#263238"/>
<path d="M235.627 278.435C235.627 278.272 235.245 278.517 235.2 278.69C233.954 282.797 231.845 287.294 227.709 287.403C227.582 287.403 227.527 287.622 227.664 287.649C232.373 288.521 235.118 282.524 235.627 278.435Z" fill="#263238"/>
<path d="M233.427 272.965C227.064 270.239 222.118 283.215 228.027 285.686C233.936 288.158 238.773 275.228 233.427 272.965Z" fill="#263238"/>
<path d="M234.164 253.856C234.164 253.856 226.555 250.013 220.636 260.117L234.164 253.856Z" fill="#263238"/>
<path d="M210 230.741C210 230.741 172.427 182.583 161.7 180.938C150.973 179.293 157.5 242.771 165.791 249.913C174.082 257.055 198.645 255.365 200.218 254.547C201.791 253.729 212.945 237.946 210 230.741Z" fill="#06B6D4"/>
<path d="M204 243.825C206.918 238.546 168.6 188.316 160.936 187.78C153.273 187.244 161.236 241.39 165.173 246.342C169.109 251.294 191.9 255.056 194.009 252.784C200.318 245.969 204 243.825 204 243.825Z" fill="#22D3EE"/>
<path d="M215.064 231.704C214.318 230.314 213.184 229.171 211.8 228.414C210.655 227.715 209.445 227.151 208.245 226.597C206.7 224.78 205.136 222.963 203.545 221.2C201.518 218.919 199.464 216.657 197.355 214.44C195.245 212.222 193.064 210.096 190.991 207.825C190.909 207.743 190.791 207.87 190.864 207.961C192.827 210.269 194.645 212.713 196.545 215.066C198.445 217.42 200.245 219.61 202.145 221.8C204.045 223.989 206.055 226.261 208.027 228.478C209.745 230.404 211.509 232.231 212.573 234.63C212.598 234.679 212.64 234.718 212.691 234.74C212.742 234.762 212.8 234.765 212.853 234.749C212.906 234.733 212.952 234.698 212.982 234.651C213.012 234.604 213.025 234.548 213.018 234.493C212.582 232.031 211.009 229.95 209.455 228.078C209.327 227.915 209.191 227.76 209.055 227.597C209.755 228.069 210.455 228.505 211.182 228.941C212.609 229.606 213.856 230.603 214.818 231.849C214.837 231.882 214.869 231.905 214.906 231.915C214.942 231.924 214.981 231.918 215.014 231.899C215.046 231.88 215.07 231.848 215.079 231.812C215.089 231.775 215.083 231.736 215.064 231.704Z" fill="#263238"/>
<path d="M168.1 252.839C164.945 250.867 163.373 246.951 162.327 243.571C161.736 241.626 161.182 239.682 160.645 237.719C160.109 235.756 159.464 233.675 159.082 231.622C159.082 231.522 158.891 231.549 158.909 231.622C159.227 233.775 159.391 235.956 159.755 238.11C160.101 240.294 160.571 242.457 161.164 244.588C161.336 245.179 161.536 245.769 161.755 246.342C161.622 247.435 161.721 248.543 162.045 249.595C162.574 251.044 163.473 252.328 164.655 253.32C164.668 253.329 164.685 253.332 164.701 253.33C164.717 253.329 164.732 253.321 164.744 253.31C164.755 253.298 164.763 253.283 164.765 253.267C164.767 253.251 164.763 253.234 164.755 253.22C163.801 252.082 163.104 250.753 162.709 249.322C162.539 248.764 162.399 248.197 162.291 247.623C162.676 248.475 163.149 249.285 163.7 250.04C164.767 251.467 166.208 252.57 167.864 253.229C167.914 253.244 167.967 253.242 168.016 253.223C168.064 253.204 168.105 253.169 168.132 253.125C168.159 253.08 168.17 253.028 168.165 252.976C168.159 252.925 168.136 252.876 168.1 252.839Z" fill="#263238"/>
<path d="M180.791 307.121C184.154 311.946 191.964 339.26 194.236 340.623C196.509 341.986 205.636 345.638 207.236 347.692C208.836 349.745 210.427 352.935 208.836 353.843C207.245 354.752 180.564 354.071 176 353.843C171.436 353.616 151.636 340.395 149.327 336.979C147.018 333.562 118.545 306.894 121.054 300.061C123.564 293.228 167.109 287.494 180.791 307.121Z" fill="#06B6D4"/>
<path d="M203.155 350.154C202.536 349.639 201.851 349.208 201.118 348.873C200.354 348.534 199.563 348.257 198.755 348.046C198.645 348.046 198.609 348.164 198.755 348.201C200.212 348.765 201.523 349.65 202.591 350.79C203.672 351.784 204.592 352.94 205.318 354.216C205.391 354.343 205.591 354.216 205.564 354.116C205.209 352.57 204.364 351.181 203.155 350.154Z" fill="#263238"/>
<path d="M207.145 348.773C206.525 348.258 205.84 347.824 205.109 347.483C204.342 347.152 203.552 346.876 202.745 346.656C202.735 346.651 202.723 346.648 202.711 346.647C202.699 346.647 202.687 346.649 202.676 346.654C202.665 346.659 202.655 346.666 202.648 346.675C202.64 346.684 202.634 346.695 202.63 346.706C202.627 346.718 202.626 346.73 202.628 346.741C202.63 346.753 202.634 346.765 202.641 346.775C202.647 346.784 202.656 346.793 202.666 346.799C202.677 346.805 202.688 346.809 202.7 346.81C204.153 347.381 205.461 348.269 206.527 349.409C207.608 350.4 208.528 351.552 209.254 352.826C209.327 352.962 209.527 352.826 209.5 352.735C209.16 351.196 208.334 349.808 207.145 348.773Z" fill="#263238"/>
<path d="M136.591 322.077C131.918 317.352 126.591 313.318 121.782 308.775C118.945 306.272 116.429 303.427 114.291 300.306C114.236 300.215 114.082 300.306 114.145 300.406C115.855 303.168 117.76 305.803 119.845 308.293C122.022 310.808 124.347 313.19 126.809 315.426C131.564 319.842 136.682 323.976 140.909 328.928C143.337 331.632 145.397 334.645 147.036 337.888C147.082 337.988 147.245 337.888 147.2 337.815C144.945 331.754 141.118 326.648 136.591 322.077Z" fill="#263238"/>
<path d="M190.791 330.882C189.973 328.229 189.118 325.588 188.227 322.959C186.509 317.843 184.454 312.855 182.836 307.712C181.863 304.813 181.22 301.813 180.918 298.771C180.918 298.652 180.718 298.652 180.727 298.771C180.957 304.062 181.952 309.293 183.682 314.299C185.397 319.581 187.282 324.806 189.336 329.973C190.527 332.963 191.827 335.916 192.973 338.914C193.018 339.023 193.182 338.978 193.145 338.869C192.327 336.198 191.609 333.535 190.791 330.882Z" fill="#263238"/>
<path d="M182.782 297.299C182.873 295.481 183.045 293.664 183.309 291.901C183.31 291.878 183.303 291.855 183.289 291.837C183.275 291.818 183.255 291.805 183.232 291.8C183.21 291.795 183.186 291.797 183.165 291.807C183.144 291.818 183.128 291.835 183.118 291.856C182.042 295.341 181.867 299.043 182.609 302.614C182.616 302.641 182.632 302.665 182.655 302.682C182.677 302.698 182.704 302.708 182.732 302.708C182.76 302.708 182.787 302.698 182.809 302.682C182.831 302.665 182.847 302.641 182.854 302.614C182.782 300.815 182.727 299.07 182.782 297.299Z" fill="#263238"/>
<path d="M159.091 344.575C155.855 342.885 153.564 340.159 151.2 337.461C150.055 336.143 148.945 334.789 147.745 333.517C146.236 331.9 144.673 330.364 143.291 328.638C143.218 328.547 143.073 328.638 143.145 328.738C145.691 331.918 147.627 335.534 150.418 338.569C152.79 341.251 155.744 343.355 159.055 344.721C159.091 344.766 159.136 344.621 159.091 344.575Z" fill="#263238"/>
<path d="M113.273 263.742C117.373 273.683 102.364 301.106 97.0818 305.894C91.8 310.683 75.2 322.568 74.0545 324.821C72.9091 327.075 74.5818 341.768 75.9545 343.367C77.3273 344.966 82.7182 346.156 84.1909 347.565C85.4727 348.773 87.6545 351.563 85.9454 353.271C84.2364 354.979 62.4364 354.18 60.3818 353.271C58.3273 352.362 46.0091 322.759 46.0091 317.289C46.0091 311.819 41.0818 263.27 58.3273 255.755C75.5727 248.241 107.345 249.386 113.273 263.742Z" fill="#06B6D4"/>
<path d="M107.155 289.221C106.06 291.503 104.846 293.726 103.518 295.881C102.873 296.917 102.209 297.944 101.518 298.961C100.827 299.979 99.9727 300.979 99.1727 301.978C97.4499 303.947 95.6005 305.801 93.6364 307.53C92.6364 308.484 91.5909 309.42 90.6091 310.401C89.6273 311.383 88.5273 312.591 87.3909 313.554C87.3 313.627 87.3909 313.745 87.5182 313.672C88.7182 312.664 90.0909 311.801 91.3637 310.874C92.6364 309.947 93.7182 309.111 94.8818 308.211C97.0168 306.666 98.9607 304.872 100.673 302.869C103.873 298.843 105.464 293.973 107.273 289.239C107.336 289.194 107.2 289.139 107.155 289.221Z" fill="#263238"/>
<path d="M123.164 261.825C116.309 270.385 111.482 280.425 108.136 290.82C107.664 292.274 107.227 293.728 106.782 295.2C106.336 296.672 106.055 298.343 105.518 299.87C105.518 299.979 105.655 300.024 105.691 299.915C106.145 298.552 106.8 297.28 107.355 295.972C107.909 294.664 108.382 293.464 108.9 292.21L111.982 284.659C114.018 279.616 116.145 274.601 118.627 269.758C120.036 267.06 121.602 264.448 123.318 261.934C123.382 261.843 123.236 261.734 123.164 261.825Z" fill="#263238"/>
<path d="M80.1818 350.436C79.5645 349.918 78.8794 349.487 78.1455 349.155C77.3823 348.813 76.5916 348.536 75.7818 348.328C75.6728 348.328 75.6364 348.446 75.7818 348.482C77.2365 349.046 78.5449 349.932 79.6091 351.072C80.6925 352.064 81.6129 353.22 82.3364 354.498C82.4 354.625 82.6091 354.498 82.5818 354.398C82.2317 352.852 81.3895 351.462 80.1818 350.436Z" fill="#263238"/>
<path d="M84.1727 349.055C83.5542 348.536 82.8694 348.102 82.1363 347.765C81.3689 347.434 80.5791 347.157 79.7727 346.938C79.6636 346.938 79.6272 347.056 79.7727 347.092C81.23 347.66 82.5411 348.548 83.6091 349.691C84.6907 350.681 85.6109 351.833 86.3363 353.107C86.4091 353.244 86.6091 353.107 86.5818 353.017C86.2267 351.471 85.3817 350.081 84.1727 349.055Z" fill="#263238"/>
<path d="M309.236 185.145C308.631 190.94 306.427 196.453 302.869 201.069C299.312 205.685 294.54 209.221 289.089 211.284C283.637 213.347 277.718 213.856 271.994 212.752C266.27 211.648 260.966 208.977 256.673 205.035L240.909 207.343L248.782 193.713C246.976 189.286 246.203 184.505 246.524 179.735C246.844 174.964 248.248 170.33 250.63 166.183C253.011 162.037 256.308 158.487 260.268 155.806C264.228 153.124 268.748 151.379 273.484 150.706C278.219 150.032 283.047 150.447 287.598 151.918C292.15 153.389 296.306 155.878 299.75 159.196C303.194 162.514 305.837 166.573 307.476 171.064C309.115 175.556 309.708 180.362 309.209 185.118L309.236 185.145Z" fill="white"/>
<path d="M309.236 185.145C308.629 190.943 306.426 196.459 302.873 201.082C301.996 202.236 301.045 203.332 300.027 204.363C298.981 205.367 297.873 206.305 296.709 207.17C292.031 210.689 286.473 212.849 280.645 213.413C279.192 213.549 277.73 213.576 276.273 213.495C274.812 213.464 273.355 213.315 271.918 213.049C266.118 211.979 260.732 209.314 256.364 205.353L256.736 205.471L241.018 207.879L239.873 208.061L240.455 207.052L248.282 193.423V193.968C245.986 188.344 245.349 182.181 246.446 176.207C247.543 170.233 250.329 164.699 254.475 160.257C258.62 155.816 263.951 152.654 269.837 151.145C275.723 149.636 281.919 149.844 287.691 151.743C292.238 153.288 296.382 155.831 299.818 159.185C303.249 162.52 305.878 166.588 307.509 171.084C309.141 175.58 309.731 180.388 309.236 185.145ZM309.236 185.145C309.74 180.409 309.149 175.62 307.508 171.148C305.868 166.677 303.222 162.641 299.774 159.353C296.326 156.066 292.169 153.613 287.623 152.185C283.078 150.757 278.264 150.391 273.555 151.116C268.885 151.822 264.441 153.591 260.564 156.286C256.719 158.986 253.508 162.49 251.155 166.554C248.833 170.629 247.465 175.177 247.155 179.857C246.867 184.526 247.625 189.201 249.373 193.541L249.491 193.822L249.336 194.086L241.418 207.652L240.855 206.825L256.609 204.617H256.827L256.982 204.762C261.185 208.697 266.401 211.384 272.045 212.522C273.451 212.804 274.877 212.977 276.309 213.04C280.633 213.354 284.973 212.734 289.036 211.223C291.754 210.24 294.311 208.862 296.627 207.134C297.79 206.277 298.898 205.349 299.945 204.354C300.971 203.337 301.928 202.254 302.809 201.11C306.385 196.483 308.609 190.957 309.236 185.145Z" fill="#263238"/>
<path d="M289.682 175.141C289.111 178.043 287.719 180.719 285.671 182.854C283.622 184.988 281.004 186.49 278.127 187.18L277.4 191.033C277.251 191.817 276.838 192.527 276.229 193.045C275.621 193.562 274.853 193.856 274.055 193.877C273.697 193.892 273.342 193.825 273.015 193.679C272.688 193.534 272.4 193.315 272.173 193.039C271.945 192.763 271.785 192.439 271.705 192.091C271.624 191.742 271.626 191.38 271.709 191.033L272.773 184.89C272.773 184.836 272.827 184.836 272.827 184.781V184.672C272.985 183.891 273.401 183.186 274.007 182.669C274.614 182.151 275.376 181.852 276.173 181.819C278.033 181.755 279.817 181.065 281.236 179.862C282.655 178.658 283.626 177.01 283.991 175.186C284.163 174.382 284.15 173.549 283.954 172.75C283.758 171.951 283.383 171.207 282.858 170.573C282.334 169.939 281.672 169.433 280.924 169.091C280.175 168.749 279.359 168.58 278.536 168.599C277.302 168.627 276.091 168.939 274.996 169.511C273.902 170.083 272.955 170.9 272.227 171.897C271.164 173.233 269.382 173.714 268.155 172.896C266.927 172.079 266.764 170.389 267.764 168.989C269.14 167.138 270.919 165.625 272.966 164.562C275.013 163.499 277.276 162.916 279.582 162.856C286.364 162.81 290.909 168.335 289.682 175.141ZM276.227 197.902L276.064 198.956C275.913 199.757 275.492 200.482 274.872 201.011C274.252 201.54 273.469 201.841 272.655 201.864C272.293 201.873 271.935 201.798 271.607 201.646C271.279 201.495 270.991 201.269 270.764 200.988C270.537 200.707 270.379 200.378 270.3 200.025C270.221 199.673 270.224 199.307 270.309 198.956L270.482 197.902C270.633 197.104 271.052 196.381 271.671 195.854C272.289 195.327 273.069 195.027 273.882 195.004C274.242 194.995 274.599 195.07 274.926 195.221C275.253 195.372 275.541 195.596 275.768 195.876C275.994 196.156 276.154 196.485 276.233 196.836C276.313 197.187 276.311 197.552 276.227 197.902Z" fill="#06B6D4"/>
</g>
<defs>
<clipPath id="clip0_3_1168">
<rect width="400" height="368" fill="white"/>
</clipPath>
</defs>
</svg>
